<?xml version="1.0" standalone="no"?>
<!DOCTYPE svg PUBLIC "-//W3C//DTD SVG 20010904//EN"
 "http://www.w3.org/TR/2001/REC-SVG-20010904/DTD/svg10.dtd">
<svg version="1.0" xmlns="http://www.w3.org/2000/svg"
 width="502.000000pt" height="350.000000pt" viewBox="0 0 502.000000 350.000000"
 preserveAspectRatio="xMidYMid meet">

<g transform="translate(0.000000,350.000000) scale(0.100000,-0.100000)"
fill="#000000" stroke="none">
<path d="M2940 3390 c0 -23 -10 -26 -28 -8 -19 19 -15 -24 8 -82 11 -28 20
-70 20 -94 0 -62 -34 -167 -86 -265 -28 -51 -54 -120 -69 -180 -34 -137 -48
-171 -99 -248 -31 -46 -50 -86 -57 -125 -10 -47 -19 -64 -50 -93 -22 -19 -43
-35 -48 -35 -6 0 -24 27 -42 60 -68 127 -223 196 -309 138 -80 -55 -94 -184
-26 -230 7 -5 7 -18 -3 -40 -18 -46 -38 -125 -45 -178 l-5 -45 18 53 c10 29
21 55 23 58 3 2 3 -42 1 -98 -3 -84 -1 -98 8 -78 12 24 12 23 23 -24 l12 -50
12 42 c16 52 32 54 33 5 0 -21 3 -56 7 -78 l8 -40 18 80 19 79 12 -39 12 -40
17 58 c10 33 19 98 21 145 3 85 4 87 29 90 14 2 26 0 26 -4 0 -3 -7 -54 -16
-113 -12 -78 -15 -143 -11 -245 5 -119 3 -147 -13 -195 -22 -67 -27 -96 -44
-268 -7 -73 -19 -139 -26 -148 -8 -10 -30 -15 -69 -15 l-57 0 -13 -60 c-7 -33
-10 -67 -6 -77 9 -25 23 -103 18 -103 -2 0 -65 11 -139 25 -74 14 -146 25
-159 25 -26 0 -85 -45 -85 -65 0 -12 69 -47 115 -58 11 -2 -175 -5 -412 -6
-283 -1 -433 2 -433 9 0 6 -5 9 -11 8 -6 -2 -25 20 -42 47 -46 76 -140 256
-136 259 2 2 23 6 47 10 51 8 46 16 92 -173 18 -73 34 -130 36 -128 7 7 -55
266 -71 297 -8 16 -27 37 -40 46 -24 15 -29 15 -68 0 -53 -20 -77 -20 -77 -1
0 8 -7 15 -15 15 -11 0 -15 -11 -15 -37 l0 -38 -69 -2 c-53 -2 -70 1 -75 12
-3 8 -10 15 -16 15 -6 0 -10 -71 -10 -204 l0 -205 -35 -12 c-35 -13 -35 -14
-35 -71 0 -45 3 -58 15 -58 22 0 22 -252 0 -270 -10 -8 -15 -30 -15 -62 0 -47
1 -50 23 -44 12 3 50 6 85 6 57 0 62 2 62 23 1 32 59 139 60 110 0 -22 4 -23
68 -23 l68 0 13 43 c7 23 23 65 36 92 19 42 24 47 30 30 37 -101 60 -157 67
-161 4 -3 -1 19 -13 48 -41 102 -57 155 -50 166 4 8 27 -2 66 -28 33 -22 75
-45 93 -51 22 -7 44 -28 71 -67 43 -63 68 -89 91 -92 8 -1 53 -1 100 0 70 1
80 3 55 11 -16 5 -59 7 -95 4 -76 -8 -100 5 -139 75 -22 39 -22 43 -5 35 79
-33 213 -44 275 -23 37 12 169 90 234 138 l40 29 1090 -10 c600 -5 1193 -10
1320 -12 l229 -2 50 -117 c38 -93 53 -118 68 -118 15 0 28 -18 51 -70 l31 -70
63 0 63 0 0 180 0 180 55 0 55 0 0 60 0 59 -57 40 c-32 21 -77 59 -101 83
l-43 45 83 37 c99 44 223 126 223 146 0 8 -17 24 -38 36 -29 16 -35 23 -23 27
9 4 16 11 16 17 0 14 -61 90 -72 90 -29 0 -314 139 -414 202 -65 41 -168 101
-229 133 -138 73 -172 96 -316 211 -257 205 -359 254 -629 309 -135 27 -261
71 -303 106 -61 50 -71 79 -63 184 7 101 28 232 51 315 8 30 35 145 60 255 25
110 49 211 55 225 6 14 14 48 19 75 5 28 13 61 17 75 6 24 5 23 -29 -9 l-36
-34 -11 27 c-5 15 -10 42 -10 59 0 42 -10 77 -21 77 -5 0 -9 -9 -9 -20z m-229
-1608 c121 -32 221 -88 361 -205 95 -79 185 -127 278 -150 74 -18 216 -43 305
-52 148 -17 239 -44 290 -87 17 -14 41 -29 55 -33 14 -4 93 -34 175 -67 172
-68 305 -135 305 -152 0 -34 -228 -166 -288 -166 -31 0 -45 -7 -73 -36 l-34
-36 -274 4 c-254 4 -274 5 -287 23 -8 10 -14 33 -14 51 l0 32 -584 4 c-321 2
-588 6 -592 11 -15 14 -18 129 -4 137 8 5 26 44 41 87 14 43 43 120 63 171 22
56 42 131 51 190 15 97 60 266 78 290 13 17 28 15 148 -16z m-1859 -643 c13
-37 78 -163 124 -240 19 -31 34 -62 34 -68 0 -7 -24 -11 -65 -11 -50 0 -66 4
-74 18 -10 16 -10 16 -11 0 0 -14 -9 -18 -40 -18 l-40 0 0 107 c0 58 2 104 5
101 3 -3 19 -36 35 -74 16 -38 30 -62 30 -54 0 8 -16 51 -35 95 -24 54 -35 95
-35 127 0 47 1 48 31 48 25 0 32 -5 41 -31z m-184 -101 c13 -46 37 -109 53
-141 16 -32 29 -61 29 -66 0 -7 -116 -61 -132 -61 -5 0 -8 79 -8 175 0 160 1
175 18 175 13 0 23 -19 40 -82z m81 -55 l-1 -118 -25 55 c-14 30 -34 81 -43
112 l-18 57 37 4 c20 2 39 4 44 5 4 1 7 -51 6 -115z m4070 30 c7 -6 -29 -30
-131 -88 l-97 -56 -108 3 -107 3 82 69 83 69 62 -21 c115 -37 105 -37 121 2
14 33 16 35 53 29 21 -3 40 -7 42 -10z m-3700 -435 l11 -23 -6 23 c-5 19 -2
22 27 22 25 0 44 -11 84 -49 76 -72 126 -95 205 -95 l65 0 -35 -14 c-45 -18
-165 -11 -240 14 -45 16 -59 26 -77 59 -24 43 -29 43 -13 1 5 -14 7 -26 4 -26
-13 0 -120 61 -149 85 l-30 24 71 1 c64 0 72 -2 83 -22z m551 13 c0 -16 -97
-95 -132 -108 -47 -17 -152 -16 -194 2 -39 16 -134 91 -134 106 0 5 99 9 230
9 138 0 230 -4 230 -9z m24 -16 c-29 -22 -42 -17 -15 6 13 11 26 17 29 14 3
-3 -3 -12 -14 -20z"/>
<path d="M1039 322 c23 -44 110 -73 161 -53 22 9 19 10 -22 10 -56 1 -94 14
-127 44 l-24 22 12 -23z"/>
</g>
</svg>
